<svg id="visual" viewBox="0 0 900 600" width="900" height="600" xmlns="http://www.w3.org/2000/svg" xmlns:xlink="http://www.w3.org/1999/xlink" version="1.1"><path d="M692 600L714.5 583.3C737 566.7 782 533.3 765.5 500C749 466.7 671 433.3 644 400C617 366.7 641 333.3 659 300C677 266.7 689 233.3 660.5 200C632 166.7 563 133.3 555.5 100C548 66.7 602 33.3 629 16.7L656 0L900 0L900 16.7C900 33.3 900 66.7 900 100C900 133.3 900 166.7 900 200C900 233.3 900 266.7 900 300C900 333.3 900 366.7 900 400C900 433.3 900 466.7 900 500C900 533.3 900 566.7 900 583.3L900 600Z" fill="#7ebaee"></path><path d="M602 600L620 583.3C638 566.7 674 533.3 657.5 500C641 466.7 572 433.3 545 400C518 366.7 533 333.3 551 300C569 266.7 590 233.3 573.5 200C557 166.7 503 133.3 506 100C509 66.7 569 33.3 599 16.7L629 0L657 0L630 16.7C603 33.3 549 66.7 556.5 100C564 133.3 633 166.7 661.5 200C690 233.3 678 266.7 660 300C642 333.3 618 366.7 645 400C672 433.3 750 466.7 766.5 500C783 533.3 738 566.7 715.5 583.3L693 600Z" fill="#76a8d5"></path><path d="M494 600L521 583.3C548 566.7 602 533.3 590 500C578 466.7 500 433.3 473 400C446 366.7 470 333.3 489.5 300C509 266.7 524 233.3 501.5 200C479 166.7 419 133.3 422 100C425 66.7 491 33.3 524 16.7L557 0L630 0L600 16.7C570 33.3 510 66.7 507 100C504 133.3 558 166.7 574.5 200C591 233.3 570 266.7 552 300C534 333.3 519 366.7 546 400C573 433.3 642 466.7 658.5 500C675 533.3 639 566.7 621 583.3L603 600Z" fill="#6d97bc"></path><path d="M422 600L455 583.3C488 566.7 554 533.3 548 500C542 466.7 464 433.3 411.5 400C359 366.7 332 333.3 335 300C338 266.7 371 233.3 368 200C365 166.7 326 133.3 321.5 100C317 66.7 347 33.3 362 16.7L377 0L558 0L525 16.7C492 33.3 426 66.7 423 100C420 133.3 480 166.7 502.5 200C525 233.3 510 266.7 490.5 300C471 333.3 447 366.7 474 400C501 433.3 579 466.7 591 500C603 533.3 549 566.7 522 583.3L495 600Z" fill="#6586a4"></path><path d="M404 600L434 583.3C464 566.7 524 533.3 515 500C506 466.7 428 433.3 378.5 400C329 366.7 308 333.3 312.5 300C317 266.7 347 233.3 338 200C329 166.7 281 133.3 267.5 100C254 66.7 275 33.3 285.5 16.7L296 0L378 0L363 16.7C348 33.3 318 66.7 322.5 100C327 133.3 366 166.7 369 200C372 233.3 339 266.7 336 300C333 333.3 360 366.7 412.5 400C465 433.3 543 466.7 549 500C555 533.3 489 566.7 456 583.3L423 600Z" fill="#5c758c"></path><path d="M332 600L363.5 583.3C395 566.7 458 533.3 455 500C452 466.7 383 433.3 339.5 400C296 366.7 278 333.3 281 300C284 266.7 308 233.3 293 200C278 166.7 224 133.3 210.5 100C197 66.7 224 33.3 237.5 16.7L251 0L297 0L286.5 16.7C276 33.3 255 66.7 268.5 100C282 133.3 330 166.7 339 200C348 233.3 318 266.7 313.5 300C309 333.3 330 366.7 379.5 400C429 433.3 507 466.7 516 500C525 533.3 465 566.7 435 583.3L405 600Z" fill="#536475"></path><path d="M260 600L300.5 583.3C341 566.7 422 533.3 419 500C416 466.7 329 433.3 287 400C245 366.7 248 333.3 255.5 300C263 266.7 275 233.3 248 200C221 166.7 155 133.3 135.5 100C116 66.7 143 33.3 156.5 16.7L170 0L252 0L238.5 16.7C225 33.3 198 66.7 211.5 100C225 133.3 279 166.7 294 200C309 233.3 285 266.7 282 300C279 333.3 297 366.7 340.5 400C384 433.3 453 466.7 456 500C459 533.3 396 566.7 364.5 583.3L333 600Z" fill="#4a545f"></path><path d="M188 600L213.5 583.3C239 566.7 290 533.3 284 500C278 466.7 215 433.3 177.5 400C140 366.7 128 333.3 129.5 300C131 266.7 146 233.3 137 200C128 166.7 95 133.3 77 100C59 66.7 56 33.3 54.5 16.7L53 0L171 0L157.5 16.7C144 33.3 117 66.7 136.5 100C156 133.3 222 166.7 249 200C276 233.3 264 266.7 256.5 300C249 333.3 246 366.7 288 400C330 433.3 417 466.7 420 500C423 533.3 342 566.7 301.5 583.3L261 600Z" fill="#40454a"></path><path d="M0 600L0 583.3C0 566.7 0 533.3 0 500C0 466.7 0 433.3 0 400C0 366.7 0 333.3 0 300C0 266.7 0 233.3 0 200C0 166.7 0 133.3 0 100C0 66.7 0 33.3 0 16.7L0 0L54 0L55.5 16.7C57 33.3 60 66.7 78 100C96 133.3 129 166.7 138 200C147 233.3 132 266.7 130.5 300C129 333.3 141 366.7 178.5 400C216 433.3 279 466.7 285 500C291 533.3 240 566.7 214.5 583.3L189 600Z" fill="#363636"></path></svg>